<?xml version="1.0" encoding="UTF-8" standalone="no"?>
<!-- Created with Inkscape (http://www.inkscape.org/) -->

<svg
   width="164.16461mm"
   height="83.611679mm"
   viewBox="0 0 164.16461 83.611679"
   version="1.1"
   id="svg1"
   xml:space="preserve"
   inkscape:version="1.3 (0e150ed, 2023-07-21)"
   sodipodi:docname="f_pt_shared_memory.svg"
   xmlns:inkscape="http://www.inkscape.org/namespaces/inkscape"
   xmlns:sodipodi="http://sodipodi.sourceforge.net/DTD/sodipodi-0.dtd"
   xmlns:xlink="http://www.w3.org/1999/xlink"
   xmlns="http://www.w3.org/2000/svg"
   xmlns:svg="http://www.w3.org/2000/svg"><sodipodi:namedview
     id="namedview1"
     pagecolor="#505050"
     bordercolor="#eeeeee"
     borderopacity="1"
     inkscape:showpageshadow="0"
     inkscape:pageopacity="0"
     inkscape:pagecheckerboard="0"
     inkscape:deskcolor="#505050"
     inkscape:document-units="mm"
     inkscape:zoom="0.88795825"
     inkscape:cx="319.83486"
     inkscape:cy="106.98701"
     inkscape:window-width="1472"
     inkscape:window-height="891"
     inkscape:window-x="0"
     inkscape:window-y="37"
     inkscape:window-maximized="1"
     inkscape:current-layer="layer1" /><defs
     id="defs1"><marker
       style="overflow:visible"
       id="ArrowTriangleStylized"
       refX="0"
       refY="0"
       orient="auto-start-reverse"
       inkscape:stockid="Stylized triangle arrow"
       markerWidth="1"
       markerHeight="1"
       viewBox="0 0 1 1"
       inkscape:isstock="true"
       inkscape:collect="always"
       preserveAspectRatio="xMidYMid"><path
         transform="scale(0.5)"
         style="fill:context-stroke;fill-rule:evenodd;stroke:context-stroke;stroke-width:1pt"
         d="m 6,0 c -3,1 -7,3 -9,5 0,0 0,-4 2,-5 -2,-1 -2,-5 -2,-5 2,2 6,4 9,5 z"
         id="path20" /></marker><linearGradient
       id="linearGradient11"
       inkscape:collect="always"><stop
         style="stop-color:#f9da64;stop-opacity:1;"
         offset="0.04501608"
         id="stop11" /><stop
         style="stop-color:#4d79a7;stop-opacity:1;"
         offset="0.93890673"
         id="stop12" /></linearGradient><linearGradient
       inkscape:collect="always"
       xlink:href="#linearGradient11"
       id="linearGradient12"
       x1="141.65596"
       y1="101.48528"
       x2="181.78325"
       y2="101.48528"
       gradientUnits="userSpaceOnUse" /></defs><g
     inkscape:label="Layer 1"
     inkscape:groupmode="layer"
     id="layer1"
     transform="translate(-17.618643,-59.921886)"><rect
       style="fill:#734f96;fill-opacity:1;fill-rule:nonzero;stroke:none;stroke-width:1.20781;stroke-opacity:1"
       id="rect1"
       width="40.127289"
       height="83.126793"
       x="17.618643"
       y="60.406776" /><rect
       style="fill:url(#linearGradient12);fill-opacity:1;fill-rule:nonzero;stroke:none;stroke-width:1.20781;stroke-opacity:1"
       id="rect1-5"
       width="40.127289"
       height="83.126793"
       x="141.65596"
       y="59.921886" /><rect
       style="fill:#4b8345;fill-opacity:1;fill-rule:nonzero;stroke:none;stroke-width:1.20781;stroke-opacity:1"
       id="rect1-1"
       width="40.127289"
       height="83.126793"
       x="79.637299"
       y="60.406776" /><g
       id="g1"
       transform="matrix(0.00811499,0,0,0.00811499,27.333967,60.796109)"><g
         id="layer101"
         style="fill:#734f96;stroke:none"
         transform="translate(0.142,-7.901)"><path
           d="M 374,2558.203 C 223.231,2558.253 -0.142,2295.04 -0.142,2181.664 v -1802 C -0.142,227.08 263.836,7.893 377.76,7.901 l 1805.356,0.127 c 155.783,0.01 367.163,254.122 367.163,375.222 v 1803.768 c 0,177.696 -238.056,370.532 -372.282,370.577 z"
           id="path2" /></g><g
         id="layer102"
         style="fill:#ffffff;stroke:none"
         transform="translate(0.142,-7.901)"><path
           d="m 350,2062 98,-6 c 199,-13 197,-12 207,-168 9,-148 -2.337,-1306.766 -9,-1330 -10.975,-38.27 -52.156,-60.281 -175,-60.25 L 350,497 V 280 h 1860 v 831 l -219,-3.25 c -2,-2 -8,-60.75 -12,-114.75 -23,-254 -80,-400.142 -190,-457.142 -58,-30 -148.565,-38.842 -438.652,-38.93 L 1080,497 v 623 h 48 c 81,-1 184,-20 218,-41 44,-27 81,-105 94,-199 9.8,-68.603 17.362,-119.933 17.362,-119.933 L 1670,760 v 990 h -220 v -39 c 0,-64 -30,-213 -51,-258 -33,-69 -89,-93 -248,-108 l -73,-7 4,321 c 3,305 5,322 24,348 24,32 50,38 209,50 l 106.727,5.077 L 1421,2280 H 350 Z"
           id="path5" /></g></g><text
       xml:space="preserve"
       style="font-weight:bold;font-size:5.32396px;font-family:'Courier New';-inkscape-font-specification:'Courier New, Bold';text-align:center;text-anchor:middle;fill:#734f96;fill-opacity:1;fill-rule:nonzero;stroke:#ffffff;stroke-width:0.41921;stroke-dasharray:none;stroke-opacity:1"
       x="37.6147"
       y="90.516083"
       id="text1"><tspan
         sodipodi:role="line"
         id="tspan1"
         style="stroke:#ffffff;stroke-width:0.41921;stroke-dasharray:none;stroke-opacity:1"
         x="37.6147"
         y="90.516083">[x], [y] ...</tspan></text><text
       xml:space="preserve"
       style="font-weight:bold;font-size:5.32396px;font-family:'Courier New';-inkscape-font-specification:'Courier New, Bold';text-align:center;text-anchor:middle;fill:#734f96;fill-opacity:1;fill-rule:nonzero;stroke:#ffffff;stroke-width:0.41921;stroke-dasharray:none;stroke-opacity:1"
       x="37.760902"
       y="129.75539"
       id="text1-5"><tspan
         sodipodi:role="line"
         id="tspan1-5"
         style="stroke:#ffffff;stroke-width:0.41921;stroke-dasharray:none;stroke-opacity:1"
         x="37.760902"
         y="129.75539">[a], [b] ...</tspan></text><rect
       style="fill:#dac630;fill-opacity:1;fill-rule:nonzero;stroke:#ffffff;stroke-width:0.499999;stroke-dasharray:none;stroke-opacity:1"
       id="rect2"
       width="26.519167"
       height="11.62076"
       x="86.44136"
       y="83.580086" /><rect
       style="fill:#dac630;fill-opacity:1;fill-rule:nonzero;stroke:#ffffff;stroke-width:0.499999;stroke-dasharray:none;stroke-opacity:1"
       id="rect2-5"
       width="26.519167"
       height="11.62076"
       x="86.44136"
       y="122.68681" /><path
       style="fill:#dac630;fill-opacity:1;fill-rule:nonzero;stroke:#ffffff;stroke-width:0.499999;stroke-dasharray:none;stroke-opacity:1;marker-end:url(#ArrowTriangleStylized)"
       d="M 57.209896,89.390462 H 81.941259"
       id="path3" /><path
       style="fill:#dac630;fill-opacity:1;fill-rule:nonzero;stroke:#ffffff;stroke-width:0.499999;stroke-dasharray:none;stroke-opacity:1;marker-start:url(#ArrowTriangleStylized)"
       d="M 57.209896,128.49718 H 81.941259"
       id="path3-4" /><path
       style="fill:none;fill-opacity:1;fill-rule:nonzero;stroke:#ffffff;stroke-width:0.499999;stroke-dasharray:none;stroke-opacity:1;marker-end:url(#ArrowTriangleStylized)"
       d="m 117.59977,89.390462 h 44.0993 v 9.237014"
       id="path4" /><path
       style="fill:none;fill-opacity:1;fill-rule:nonzero;stroke:#ffffff;stroke-width:0.499999;stroke-dasharray:none;stroke-opacity:1;marker-start:url(#ArrowTriangleStylized)"
       d="m 117.59977,128.49718 h 44.0993 v -9.23701"
       id="path4-0" /><text
       xml:space="preserve"
       style="font-style:normal;font-variant:normal;font-weight:bold;font-stretch:normal;font-size:9.87778px;font-family:'Courier New';-inkscape-font-specification:'Courier New, Bold';font-variant-ligatures:normal;font-variant-caps:normal;font-variant-numeric:normal;font-variant-east-asian:normal;text-align:center;text-anchor:middle;fill:none;fill-opacity:1;fill-rule:nonzero;stroke:#ffffff;stroke-width:0.499999;stroke-dasharray:none;stroke-opacity:1"
       x="161.79436"
       y="112.88258"
       id="text4"><tspan
         sodipodi:role="line"
         style="font-style:normal;font-variant:normal;font-weight:bold;font-stretch:normal;font-size:9.87778px;font-family:'Courier New';-inkscape-font-specification:'Courier New, Bold';font-variant-ligatures:normal;font-variant-caps:normal;font-variant-numeric:normal;font-variant-east-asian:normal;stroke-width:0.5"
         x="161.79436"
         y="112.88258"
         id="tspan9">NN</tspan></text><g
       id="g20"
       transform="translate(9.9010455)"><g
         style="fill:#000000"
         id="g19"
         transform="matrix(0.75452831,0,0,0.75452831,142.76433,62.089526)"><path
           d="m 12.005,0.04 -7.03,7.03 a 9.832,9.832 0 0 0 0,13.975 9.833,9.833 0 0 0 13.976,0 c 3.97,-3.887 3.972,-10.171 0.084,-13.976 l -1.738,1.737 c 2.895,2.895 2.895,7.608 0,10.503 -2.894,2.894 -7.608,2.894 -10.503,0 C 3.9,16.414 3.9,11.7 6.794,8.806 l 4.632,-4.631 0.58,-0.663 z m 3.556,3.886 a 1.323,1.323 0 0 0 -1.323,1.323 1.323,1.323 0 0 0 1.323,1.323 1.323,1.323 0 0 0 1.323,-1.323 1.323,1.323 0 0 0 -1.323,-1.323 z"
           id="path1-0" /></g></g><text
       xml:space="preserve"
       style="font-style:normal;font-variant:normal;font-weight:bold;font-stretch:normal;font-size:8.46667px;font-family:'Courier New';-inkscape-font-specification:'Courier New, Bold';font-variant-ligatures:normal;font-variant-caps:normal;font-variant-numeric:normal;font-variant-east-asian:normal;text-align:center;text-anchor:middle;fill:none;fill-opacity:1;fill-rule:nonzero;stroke:#ffffff;stroke-width:0.499999;stroke-dasharray:none;stroke-opacity:1"
       x="99.855972"
       y="70.12075"
       id="text20"><tspan
         sodipodi:role="line"
         id="tspan20"
         style="font-style:normal;font-variant:normal;font-weight:bold;font-stretch:normal;font-size:8.46667px;font-family:'Courier New';-inkscape-font-specification:'Courier New, Bold';font-variant-ligatures:normal;font-variant-caps:normal;font-variant-numeric:normal;font-variant-east-asian:normal;stroke:#ffffff;stroke-width:0.5;stroke-opacity:1"
         x="99.855972"
         y="70.12075">Memory</tspan></text></g></svg>
